<?xml version="1.0" encoding="UTF-8"?>
<svg id="Layer_1" data-name="Layer 1" xmlns="http://www.w3.org/2000/svg" viewBox="0 0 1080 1080">
  <defs>
    <style>
      .cls-1 {
        fill: #70cde1;
      }

      .cls-2 {
        fill: #003f86;
      }
    </style>
  </defs>
  <g>
    <polygon class="cls-2" points="477.94 116.35 477.94 48.44 36.21 48.44 36.21 490.18 477.94 490.18 477.94 422.27 104.12 422.27 104.12 116.35 477.94 116.35"/>
    <polygon class="cls-2" points="477.96 657.68 477.96 589.77 36.19 589.77 36.19 1031.56 477.96 1031.56 477.96 776.71 250.71 776.71 250.71 844.62 410.06 844.62 410.06 963.65 104.09 963.65 104.09 657.68 477.96 657.68"/>
    <polygon class="cls-2" points="653.01 116.35 1026.83 116.35 1026.83 48.44 585.1 48.44 585.1 490.18 1026.83 490.18 1026.83 422.27 653.01 422.27 653.01 116.35"/>
    <polygon class="cls-2" points="585.1 589.78 585.1 1031.52 653.01 1031.52 653.01 657.69 958.93 657.69 958.93 1031.52 1026.83 1031.52 1026.83 589.78 585.1 589.78"/>
  </g>
  <rect class="cls-1" x="772.01" y="235.36" width="67.91" height="67.91"/>
  <rect class="cls-1" x="772.01" y="810.65" width="67.91" height="67.91"/>
</svg>